<svg width="577" height="154" viewBox="0 0 577 154" fill="none" xmlns="http://www.w3.org/2000/svg">
<path d="M126.146 64.8835H137.079V70.5177C138.476 68.5184 140.237 66.9433 142.363 65.7922C144.428 64.6412 146.796 64.0959 149.469 64.0959C152.141 64.0959 153.417 64.4594 155.056 65.1864C156.696 65.9134 158.154 66.8827 159.308 68.0944C160.462 69.306 161.373 70.8206 161.98 72.5775C162.587 74.3343 162.952 76.2124 162.952 78.3328V103.596H152.02V82.1494C152.02 79.9685 151.412 78.2116 150.137 76.8788C148.861 75.6066 147.282 74.9402 145.399 74.9402C143.517 74.9402 143.092 75.1825 142.059 75.7277C141.087 76.2124 140.237 76.9394 139.508 77.7875C138.779 78.6357 138.233 79.605 137.808 80.6955C137.443 81.7859 137.2 82.937 137.14 84.2092V103.596H126.207V64.8229L126.146 64.8835Z" fill="white"/>
<path d="M170.361 54.7663C170.361 53.07 170.969 51.6766 172.183 50.5256C173.398 49.3745 174.916 48.7687 176.739 48.7687C178.561 48.7687 180.018 49.3745 181.172 50.5256C182.387 51.6766 182.994 53.1306 182.994 54.7663C182.994 56.402 182.387 57.9166 181.172 59.0677C179.957 60.2187 178.5 60.8245 176.739 60.8245C174.977 60.8245 173.398 60.2187 172.183 59.0677C170.969 57.9166 170.361 56.4626 170.361 54.7663ZM171.212 64.8835H182.144V103.656H171.212V64.8835Z" fill="white"/>
<path d="M199.576 86.6932C199.94 88.9953 200.973 90.8733 202.613 92.3273C204.253 93.7813 206.318 94.5083 208.868 94.5083C211.419 94.5083 211.905 94.0842 213.181 93.3572C214.456 92.6302 215.489 91.6003 216.217 90.5098H228.061C227.575 92.6302 226.725 94.5083 225.571 96.2652C224.417 98.022 223.02 99.4154 221.319 100.627C219.619 101.839 217.736 102.747 215.549 103.414C213.424 104.08 211.116 104.383 208.565 104.383C206.014 104.383 202.916 103.899 200.426 102.869C197.936 101.839 195.81 100.445 194.049 98.6884C192.227 96.871 190.83 94.8112 189.798 92.3273C188.765 89.8434 188.279 87.2384 188.279 84.3305C188.279 81.4225 188.765 78.7569 189.798 76.273C190.769 73.7892 192.227 71.6688 193.988 69.9119C195.81 68.0944 197.875 66.7616 200.366 65.7317C202.795 64.7018 205.528 64.2172 208.443 64.2172C211.359 64.2172 213.727 64.6412 216.035 65.4288C218.343 66.2164 220.408 67.3674 222.169 68.882C223.931 70.3965 225.388 72.1534 226.482 74.2132C227.575 76.273 228.304 78.5752 228.607 81.059C228.729 82.2101 228.79 83.1794 228.79 83.967C228.79 84.8151 228.79 85.7239 228.79 86.6932H199.576ZM217.007 80.6955C216.643 78.7569 215.732 77.1212 214.213 75.9095C212.695 74.6979 210.812 74.0315 208.626 74.0315C206.439 74.0315 204.435 74.6373 202.977 75.8489C201.52 77.0606 200.487 78.6963 199.94 80.6955H217.007Z" fill="white"/>
<path d="M234.984 50.8285H245.917V103.656H234.984V50.8285Z" fill="white"/>
<path d="M253.508 76.4548C253.508 72.517 254.905 69.4878 257.76 67.3675C260.553 65.2471 264.562 64.1566 269.724 64.1566C274.887 64.1566 279.138 65.3077 281.932 67.5492C284.726 69.7908 286.123 72.8805 286.244 76.8789H275.13C275.008 73.9709 273.247 72.517 269.846 72.517C266.445 72.517 264.501 73.668 264.501 75.9701C264.501 78.2723 265.048 78.0905 266.202 78.6963C267.356 79.3022 268.753 79.7868 270.392 80.1503C272.093 80.5138 273.854 80.8773 275.859 81.2408C277.802 81.6043 279.624 82.1495 281.325 82.9371C282.965 83.7247 284.361 84.8151 285.515 86.2691C286.669 87.6625 287.216 89.6617 287.216 92.1456C287.216 95.8411 285.819 98.8096 282.965 100.991C280.11 103.172 275.859 104.262 270.21 104.262C264.562 104.262 259.946 103.111 257.091 100.869C254.237 98.5673 252.779 95.4776 252.779 91.6004H263.833C264.076 94.5083 266.202 96.0229 270.21 96.0229C274.219 96.0229 276.102 94.8718 276.102 92.5697C276.102 90.2676 275.555 90.4493 274.462 89.9041C273.368 89.3588 271.972 88.9347 270.271 88.6318C268.57 88.3289 266.809 87.9654 264.866 87.6625C262.922 87.299 261.1 86.7538 259.46 85.9662C257.76 85.1786 256.423 84.0276 255.269 82.5736C254.115 81.1196 253.63 79.0598 253.63 76.4548H253.508Z" fill="white"/>
<path d="M291.711 84.2699C291.711 81.362 292.197 78.6964 293.229 76.2125C294.262 73.7286 295.659 71.6082 297.481 69.8513C299.303 68.0945 301.429 66.7011 303.858 65.6712C306.348 64.6413 309.02 64.1566 311.996 64.1566C314.972 64.1566 317.645 64.6413 320.135 65.6712C322.625 66.7011 324.751 68.0945 326.634 69.9119C328.456 71.7294 329.913 73.8498 330.946 76.2731C331.978 78.6964 332.464 81.362 332.464 84.2699C332.464 87.1779 331.978 89.8435 330.946 92.2668C329.913 94.6901 328.456 96.8104 326.634 98.6279C324.812 100.445 322.625 101.778 320.135 102.808C317.645 103.838 314.972 104.323 311.996 104.323C309.02 104.323 306.348 103.838 303.858 102.808C301.368 101.778 299.242 100.385 297.481 98.6279C295.719 96.871 294.262 94.7506 293.229 92.2668C292.197 89.8435 291.711 87.1779 291.711 84.2699ZM303.068 84.3911C303.068 85.6027 303.311 86.8144 303.736 87.9049C304.162 89.0559 304.83 90.0252 305.619 90.8128C306.409 91.6609 307.381 92.3273 308.535 92.812C309.689 93.2967 310.903 93.539 312.239 93.539C313.576 93.539 314.79 93.2967 315.883 92.812C316.977 92.3273 317.888 91.6609 318.677 90.8128C319.467 89.9646 320.013 88.9953 320.499 87.9049C320.985 86.8144 321.167 85.6027 321.167 84.3911C321.167 83.1794 320.985 81.9072 320.56 80.7561C320.135 79.6051 319.528 78.6358 318.738 77.727C317.948 76.8789 317.037 76.2125 315.883 75.7278C314.79 75.2432 313.576 75.0008 312.239 75.0008C310.903 75.0008 309.628 75.2432 308.535 75.7278C307.441 76.2125 306.47 76.8789 305.68 77.727C304.89 78.5752 304.222 79.6051 303.797 80.7561C303.372 81.9072 303.129 83.1189 303.129 84.3911H303.068Z" fill="white"/>
<path d="M338.658 64.8835H349.591V70.5177C350.987 68.5184 352.749 66.9433 354.874 65.7922C356.939 64.6412 359.308 64.0959 361.98 64.0959C364.653 64.0959 365.928 64.4594 367.568 65.1864C369.208 65.9134 370.666 66.8827 371.82 68.0944C372.974 69.3666 373.885 70.8206 374.492 72.5775C375.099 74.3343 375.464 76.2124 375.464 78.3328V103.596H364.531V82.1494C364.531 79.9685 363.924 78.2116 362.649 76.8788C361.373 75.6066 359.794 74.9402 357.911 74.9402C356.028 74.9402 355.603 75.1825 354.571 75.7277C353.599 76.2124 352.749 76.9394 352.02 77.7875C351.291 78.6357 350.744 79.605 350.319 80.6955C349.894 81.7859 349.712 82.937 349.651 84.2092V103.596H338.719V64.8229L338.658 64.8835Z" fill="white"/>
<path d="M382.995 76.4548C382.995 72.517 384.392 69.4878 387.246 67.3675C390.04 65.2471 394.048 64.1566 399.211 64.1566C404.373 64.1566 408.625 65.3077 411.358 67.5492C414.152 69.7908 415.549 72.8805 415.67 76.8789H404.556C404.434 73.9709 402.673 72.517 399.272 72.517C395.87 72.517 393.927 73.668 393.927 75.9701C393.927 78.2723 394.474 78.0905 395.627 78.6963C396.781 79.3022 398.178 79.7868 399.818 80.1503C401.519 80.5138 403.28 80.8773 405.284 81.2408C407.228 81.6043 409.05 82.1495 410.751 82.9371C412.39 83.7247 413.787 84.8151 414.941 86.2691C416.095 87.6625 416.642 89.6617 416.642 92.1456C416.642 95.8411 415.245 98.8096 412.39 100.991C409.536 103.172 405.284 104.262 399.636 104.262C393.988 104.262 389.372 103.111 386.517 100.869C383.663 98.5673 382.205 95.4776 382.205 91.6004H393.259C393.502 94.5083 395.628 96.0229 399.636 96.0229C403.645 96.0229 405.527 94.8718 405.527 92.5697C405.527 90.2676 404.981 90.4493 403.887 89.9041C402.794 89.3588 401.397 88.9347 399.758 88.6318C398.057 88.3289 396.296 87.9654 394.352 87.6625C392.409 87.299 390.586 86.7538 388.947 85.9662C387.246 85.1786 385.91 84.0276 384.817 82.5736C383.723 81.1196 383.177 79.0598 383.177 76.4548H382.995Z" fill="white"/>
<path d="M423.262 64.8835H434.194V70.1542C435.53 68.2761 437.109 66.8221 439.053 65.7317C440.996 64.6412 443.122 64.0959 445.551 64.0959C447.981 64.0959 450.471 64.7623 452.415 66.0952C454.358 67.428 455.755 69.1849 456.787 71.4264C458.184 69.1849 460.006 67.3674 462.132 66.0952C464.258 64.7623 466.748 64.0959 469.603 64.0959C472.457 64.0959 473.247 64.4594 474.765 65.1864C476.283 65.9134 477.62 66.8827 478.713 68.0944C479.806 69.306 480.656 70.8206 481.264 72.5775C481.871 74.3343 482.175 76.2124 482.175 78.3328V103.596H471.242V82.1494C471.242 79.9685 470.696 78.2116 469.603 76.8788C468.509 75.6066 467.112 74.9402 465.412 74.9402C463.711 74.9402 463.408 75.1825 462.557 75.7277C461.646 76.2124 460.917 76.9394 460.31 77.7875C459.703 78.6357 459.217 79.605 458.852 80.6955C458.488 81.7859 458.245 82.937 458.245 84.2092V103.596H447.313V82.1494C447.313 79.9685 446.766 78.2116 445.673 76.8788C444.58 75.6066 443.244 74.9402 441.543 74.9402C439.842 74.9402 439.478 75.1825 438.628 75.7277C437.777 76.2124 436.988 76.9394 436.381 77.7875C435.773 78.6357 435.227 79.605 434.923 80.6955C434.558 81.7859 434.376 82.937 434.315 84.2092V103.596H423.383V64.8229L423.262 64.8835Z" fill="white"/>
<path d="M489.584 54.7663C489.584 53.07 490.191 51.6766 491.406 50.5256C492.621 49.3745 494.139 48.7687 495.961 48.7687C497.783 48.7687 499.18 49.3745 500.395 50.5256C501.61 51.6766 502.217 53.1306 502.217 54.7663C502.217 56.402 501.61 57.9166 500.395 59.0677C499.18 60.2187 497.722 60.8245 495.961 60.8245C494.2 60.8245 492.621 60.2187 491.406 59.0677C490.191 57.9166 489.584 56.4626 489.584 54.7663ZM490.374 64.8835H501.306V103.656H490.374V64.8835Z" fill="white"/>
<path d="M524.508 53.9181V64.9441H533.315V73.7285H524.508V89.2376C524.508 91.1762 524.994 92.509 525.966 93.236C526.938 93.963 528.274 94.3265 529.974 94.3265C531.675 94.3265 531.007 94.3265 531.554 94.2659C532.1 94.2659 532.708 94.1447 533.376 94.0236V103.898C531.128 104.201 529.003 104.323 527.059 104.323C522.626 104.323 519.224 103.414 516.977 101.475C514.73 99.5365 513.576 96.4468 513.576 91.9638V73.6679H507.32V64.8835C510.782 64.8835 513.576 62.0967 513.576 58.6435V53.8575H524.569L524.508 53.9181Z" fill="white"/>
<path d="M539.934 50.8285H550.866V70.1542C552.324 68.3368 554.146 66.8828 556.211 65.7923C558.337 64.7018 560.644 64.1566 563.195 64.1566C565.746 64.1566 567.143 64.5201 568.783 65.2471C570.423 65.974 571.88 66.9434 573.034 68.155C574.188 69.4272 575.099 70.8812 575.707 72.6381C576.314 74.395 576.678 76.273 576.678 78.3934V103.656H565.564V82.2101C565.564 80.0291 564.957 78.2722 563.742 76.9394C562.527 75.6672 561.009 75.0008 559.065 75.0008C557.122 75.0008 556.757 75.2431 555.725 75.7884C554.753 76.273 553.903 77 553.174 77.8482C552.445 78.6963 551.899 79.6656 551.473 80.7561C551.048 81.8466 550.866 82.9977 550.805 84.2699V103.656H539.873V50.8285H539.934Z" fill="white"/>
<path d="M96.9938 49.8592V131.403H66.687V61.2486C66.687 56.5838 62.9215 52.8277 58.2449 52.8277H0V36.107C0 28.6554 6.0735 22.5972 13.5439 22.5972H69.6023C84.7253 22.5972 96.9938 34.8348 96.9938 49.9198V49.8592Z" fill="white"/>
<path d="M30.3068 70.8206V131.403H0V64.8835H24.3547C27.6344 64.8835 30.3068 67.5492 30.3068 70.8206Z" fill="white"/>
</svg>
