<svg width="577" height="154" viewBox="0 0 577 154" fill="none" xmlns="http://www.w3.org/2000/svg">
<path d="M48.825 43.9V54.13H30.504V109H19.809V54.13H1.395V43.9H48.825ZM79.9764 62.5H90.0204V109H79.9764V103.048C76.9384 107.822 72.1334 110.209 65.5614 110.209C60.2294 110.209 55.9204 108.504 52.6344 105.094C49.3484 101.684 47.7054 97.003 47.7054 91.051V62.5H57.7494V90.028C57.7494 93.5 58.6794 96.166 60.5394 98.026C62.3994 99.886 64.9414 100.816 68.1654 100.816C71.6994 100.816 74.5514 99.731 76.7214 97.561C78.8914 95.329 79.9764 91.95 79.9764 87.424V62.5ZM111.809 70.312C114.351 64.546 119.125 61.663 126.131 61.663V72.544C122.287 72.296 118.939 73.226 116.087 75.334C113.235 77.38 111.809 80.79 111.809 85.564V109H101.765V62.5H111.809V70.312ZM174.658 109H162.661L143.596 87.517V109H133.552V43.9H143.596V83.053L161.638 62.5H173.914L153.454 85.285L174.658 109ZM232.193 61.291C237.463 61.291 241.71 62.996 244.934 66.406C248.158 69.816 249.77 74.404 249.77 80.17V109H239.726V80.821C239.726 77.597 238.92 75.117 237.308 73.381C235.696 71.583 233.495 70.684 230.705 70.684C227.605 70.684 225.125 71.707 223.265 73.753C221.467 75.799 220.568 78.868 220.568 82.96V109H210.524V80.821C210.524 77.597 209.749 75.117 208.199 73.381C206.711 71.583 204.572 70.684 201.782 70.684C198.744 70.684 196.264 71.738 194.342 73.846C192.42 75.892 191.459 78.93 191.459 82.96V109H181.415V62.5H191.459V68.08C194.435 63.554 198.868 61.291 204.758 61.291C210.71 61.291 215.112 63.74 217.964 68.638C221.064 63.74 225.807 61.291 232.193 61.291ZM268.424 90.028C269.168 93.562 270.873 96.29 273.539 98.212C276.205 100.072 279.46 101.002 283.304 101.002C288.636 101.002 292.635 99.08 295.301 95.236L303.578 100.072C298.99 106.83 292.201 110.209 283.211 110.209C275.647 110.209 269.54 107.915 264.89 103.327C260.24 98.677 257.915 92.818 257.915 85.75C257.915 78.806 260.209 73.009 264.797 68.359C269.385 63.647 275.275 61.291 282.467 61.291C289.287 61.291 294.867 63.678 299.207 68.452C303.609 73.226 305.81 79.023 305.81 85.843C305.81 86.897 305.686 88.292 305.438 90.028H268.424ZM268.331 81.844H295.673C294.991 78.062 293.41 75.21 290.93 73.288C288.512 71.366 285.66 70.405 282.374 70.405C278.654 70.405 275.554 71.428 273.074 73.474C270.594 75.52 269.013 78.31 268.331 81.844ZM339.107 61.291C344.439 61.291 348.748 62.996 352.034 66.406C355.32 69.816 356.963 74.497 356.963 80.449V109H346.919V81.472C346.919 78 345.989 75.334 344.129 73.474C342.269 71.614 339.727 70.684 336.503 70.684C332.969 70.684 330.117 71.8 327.947 74.032C325.777 76.202 324.692 79.55 324.692 84.076V109H314.648V62.5H324.692V68.452C327.73 63.678 332.535 61.291 339.107 61.291Z" fill="#059784"/>
<path d="M379.124 98.77H407.954V109H368.429V43.9H407.489V54.13H379.124V71.056H405.164V81.193H379.124V98.77ZM458.664 109H447.039L435.507 93.097L423.882 109H412.164L429.648 85.099L413.094 62.5H424.719L435.414 77.194L446.109 62.5H457.827L441.273 85.192L458.664 109ZM491.729 61.291C498.115 61.291 503.571 63.678 508.097 68.452C512.623 73.164 514.886 78.93 514.886 85.75C514.886 92.632 512.623 98.429 508.097 103.141C503.571 107.853 498.115 110.209 491.729 110.209C484.661 110.209 479.236 107.605 475.454 102.397V127.6H465.41V62.5H475.454V69.196C479.236 63.926 484.661 61.291 491.729 61.291ZM479.639 96.445C482.429 99.235 485.932 100.63 490.148 100.63C494.364 100.63 497.867 99.235 500.657 96.445C503.447 93.593 504.842 90.028 504.842 85.75C504.842 81.472 503.447 77.938 500.657 75.148C497.867 72.296 494.364 70.87 490.148 70.87C485.932 70.87 482.429 72.296 479.639 75.148C476.849 77.938 475.454 81.472 475.454 85.75C475.454 90.028 476.849 93.593 479.639 96.445ZM545.937 110.209C539.117 110.209 533.32 107.853 528.546 103.141C523.772 98.429 521.385 92.632 521.385 85.75C521.385 78.868 523.772 73.071 528.546 68.359C533.32 63.647 539.117 61.291 545.937 61.291C552.819 61.291 558.616 63.647 563.328 68.359C568.102 73.071 570.489 78.868 570.489 85.75C570.489 92.632 568.102 98.429 563.328 103.141C558.616 107.853 552.819 110.209 545.937 110.209ZM535.614 96.259C538.404 99.049 541.845 100.444 545.937 100.444C550.029 100.444 553.47 99.049 556.26 96.259C559.05 93.469 560.445 89.966 560.445 85.75C560.445 81.534 559.05 78.031 556.26 75.241C553.47 72.451 550.029 71.056 545.937 71.056C541.845 71.056 538.404 72.451 535.614 75.241C532.824 78.031 531.429 81.534 531.429 85.75C531.429 89.966 532.824 93.469 535.614 96.259Z" fill="#BC213A"/>
</svg>
