<svg width="203" height="48" viewBox="0 0 203 48" fill="none" xmlns="http://www.w3.org/2000/svg">
<g clip-path="url(#clip0_77_383)">
<path d="M6.68353 0.327029C7.43498 0.327029 7.46943 0.344268 7.46943 0.911386V10.0043C7.46943 10.6778 7.36488 11.1249 7.13737 11.3656C6.90986 11.6236 6.40375 11.8126 5.5828 11.9506L5.60062 12.1568C6.50889 12.1568 7.76644 12.1051 8.51789 12.1051C9.0246 12.1051 9.54853 12.1224 10.1247 12.1396C10.6837 12.1568 11.1031 12.1568 11.3651 12.1568L11.3829 11.9506C10.3873 11.8471 9.93286 11.6064 9.6709 11.2972C9.6008 11.2283 9.54853 11.0737 9.51348 10.833C9.46121 10.5922 9.44338 10.3836 9.44338 10.1939C9.42616 10.0221 9.42616 9.71241 9.42616 9.28261V0.91198C9.42616 0.413821 9.51348 0.327623 9.79267 0.327623H10.9279C12.6571 0.327623 13.6527 1.25558 13.9152 3.09841L14.1944 3.08118L13.9325 0.000668867C13.5309 0.000668867 12.8495 0.000668868 11.9234 0.0179083C10.998 0.0351477 10.1592 0.0523871 9.42616 0.0523871H7.46943C7.05005 0.0523871 6.2992 0.0351477 5.19906 0.0179083C4.09832 0.000668868 3.34747 0.000668867 2.96314 0.000668867L2.70117 3.08118L2.98036 3.09841C3.10333 2.28995 3.45262 1.63366 4.011 1.10102C4.55276 0.585026 5.16401 0.327623 5.80972 0.327623H6.68294L6.68353 0.327029ZM31.0161 2.20137C31.0161 1.37626 31.0862 0.860262 31.2436 0.653983C31.3832 0.464944 31.8198 0.30979 32.5534 0.224187L32.5356 0.0179083C32.064 0.0179083 31.2602 0.0696265 30.8937 0.0696265C30.5617 0.0696265 29.8108 0.0179083 29.3213 0.0179083L29.3035 0.224187C29.9154 0.275905 30.3169 0.430465 30.4916 0.671223C30.649 0.91198 30.7363 1.42797 30.7363 2.20137V7.60028C30.7363 10.3342 29.3391 11.8816 27.1906 11.8816C24.4657 11.8816 23.2955 10.6433 23.2955 7.34228V2.20137C23.2955 1.37626 23.3133 1.16938 23.5403 0.808544C23.7672 0.447705 24.2394 0.344268 25.1649 0.224187L25.1477 0.0179083C24.8679 0.0179083 24.4141 0.0179083 23.8028 0.0351477C23.191 0.0523871 22.7199 0.0696265 22.4229 0.0696265C22.1431 0.0523871 21.7415 0.0351477 21.2004 0.0179083C20.6586 0.0179083 20.222 0.0179083 19.8549 0.0179083L19.8377 0.224187C20.5363 0.30979 20.9556 0.464944 21.1131 0.688462C21.2699 0.91198 21.34 1.42797 21.34 2.20137V7.60028C21.34 10.7807 22.9468 12.3631 26.1783 12.3631C29.4098 12.3631 31.0167 10.7813 31.0167 7.60028V2.20137H31.0161ZM42.2652 6.08678C42.8069 6.08678 43.2435 6.2241 43.575 6.51658C43.8899 6.80905 44.2742 7.37617 44.7453 8.253L45.6363 9.90383C46.1602 10.8496 46.5273 11.4685 46.7543 11.7437C46.9639 12.0189 47.2259 12.1562 47.558 12.1562C47.9595 12.1562 48.6581 12.1045 48.7977 12.1045H50.597V11.8982H50.4574C49.6715 11.8982 48.6587 11.2967 48.0469 10.1963L46.8416 7.9956C46.2303 6.89525 45.846 6.44821 44.9377 6.08737C46.9461 5.82938 47.9946 4.58873 47.9946 3.15608C47.9946 2.31075 47.6275 1.56827 46.9117 0.92922C46.1953 0.310384 45.1997 0.000668867 43.9415 0.000668867C43.6451 0.000668867 43.1729 0.000668868 42.4921 0.0179083C41.8108 0.0351477 41.2346 0.0523871 40.7979 0.0523871C40.5182 0.0523871 40.0988 0.0351477 39.5576 0.0179083C38.9986 0.000668868 38.527 0.000668867 38.1605 0.000668867L38.1426 0.224187C38.9285 0.30979 39.418 0.464944 39.6099 0.705702C39.8018 0.963699 39.8891 1.54806 39.8891 2.47661V9.5947C39.8891 10.4543 39.8018 11.022 39.6099 11.2972C39.4174 11.5725 38.9285 11.7954 38.1076 11.9506L38.1248 12.1568C38.5614 12.1568 39.086 12.1568 39.6622 12.1396C40.2384 12.1224 40.6578 12.1051 40.9197 12.1051C41.2868 12.1051 41.7757 12.1224 42.387 12.1396C42.9982 12.1568 43.4176 12.1568 43.6273 12.1568L43.6451 11.9506C42.7363 11.7788 42.3175 11.6064 42.0727 11.2972C42.0026 11.2283 41.9504 11.091 41.9159 10.8847C41.8458 10.4721 41.8458 10.3003 41.8458 9.5953V6.12185C41.9331 6.10461 42.0727 6.08737 42.2652 6.08737V6.08678ZM41.8458 0.911386C41.8458 0.63615 41.8981 0.46435 42.0205 0.395392C42.1428 0.327029 42.4571 0.291956 42.981 0.291956C43.9766 0.291956 44.7102 0.567192 45.2163 1.12064C45.7058 1.68775 45.9499 2.36128 45.9499 3.15548C45.9499 4.96681 44.8843 5.86326 42.7357 5.86326C42.3691 5.86326 42.0721 5.84602 41.8446 5.81154V0.910791L41.8458 0.911386ZM59.6975 6.05289L62.7021 10.0417C63.0342 10.506 63.191 10.8669 63.191 11.1249C63.191 11.5891 62.894 11.8644 62.2827 11.95L62.3 12.1562C62.7193 12.1562 63.191 12.1562 63.6977 12.139C64.2038 12.1218 64.5709 12.1045 64.8157 12.1045C65.0426 12.1045 65.4792 12.1218 66.1433 12.139C66.8068 12.1562 67.2963 12.1562 67.5933 12.1562L67.6112 11.95C66.5627 11.7437 65.9865 11.365 65.2184 10.3336L60.9384 4.67671L63.4013 1.96002C63.9603 1.34059 64.4319 0.910791 64.8163 0.670628C65.1828 0.429871 65.7423 0.275311 66.4932 0.223592L66.4754 0.0173138C66.2657 0.0173138 65.9164 0.0173138 65.4275 0.0345532C64.9208 0.0517927 64.5715 0.0690321 64.3446 0.0690321C64.0304 0.0517927 62.9819 7.44041e-05 62.7372 7.44041e-05L62.7199 0.223592C63.314 0.309195 63.611 0.532713 63.611 0.876907C63.611 1.16938 63.3312 1.61642 62.7894 2.21802L59.069 6.3103V1.73709C59.069 0.722347 59.3661 0.344268 60.3967 0.224187L60.3795 0.0179083C60.152 0.0179083 59.7682 0.0179083 59.2615 0.0351477C58.7548 0.0523871 58.3532 0.0696265 58.0562 0.0696265C57.7764 0.0523871 57.3749 0.0351477 56.8682 0.0179083C56.3442 0.0179083 55.9249 0.0179083 55.6284 0.0179083L55.6112 0.224187C56.7814 0.344268 57.1129 0.705702 57.1129 1.82329V9.83546C57.1129 10.6267 56.9905 11.1421 56.7636 11.4001C56.5367 11.6581 56.0478 11.8471 55.3314 11.95L55.3486 12.1562C55.6807 12.1562 56.1702 12.1562 56.8159 12.139C57.4622 12.1218 57.8816 12.1045 58.1085 12.1045C58.6152 12.1045 59.8549 12.1562 60.3266 12.1562L60.3438 11.95C59.296 11.692 59.0684 11.2622 59.0684 10.1446V6.74009L59.6975 6.0523V6.05289ZM79.7329 12.0189L84.6063 0.774065V9.52575C84.6063 10.6261 84.6063 11.0559 84.257 11.4001C84.0824 11.5719 83.9077 11.6753 83.7152 11.7264C83.5234 11.7782 83.1563 11.8299 82.6496 11.8982L82.6674 12.1562C83.1563 12.1562 83.7152 12.1562 84.3437 12.139C84.9556 12.1218 85.4094 12.1045 85.6714 12.1045C85.8633 12.1045 86.2476 12.1218 86.8244 12.139C87.3834 12.1562 87.8027 12.1562 88.0819 12.1562L88.0998 11.8982C87.3311 11.8126 86.8773 11.6575 86.7198 11.434C86.563 11.2277 86.4757 10.6427 86.4757 9.66307V1.59918C86.4757 0.687868 86.825 0.412632 88.1699 0.223592L88.152 0.0173138C87.6632 0.0173138 86.9123 0.0690321 86.4228 0.0690321H84.6063L80.4837 9.59411L76.4836 0.0690321H74.8939C74.4223 0.0690321 73.3394 0.0173138 72.5707 0.0173138L72.5529 0.223592C73.7582 0.275311 74.5441 0.670628 74.5441 1.16938V9.99002C74.5441 10.7295 74.4567 11.211 74.2643 11.4173C74.0724 11.6408 73.5657 11.8126 72.7798 11.9506L72.797 12.1568C73.1986 12.1568 74.1247 12.1051 74.6837 12.1051C75.0852 12.1051 75.9412 12.1568 76.5002 12.1568L76.518 11.9506C75.8016 11.8305 75.3306 11.6581 75.1381 11.4346C74.9284 11.211 74.8238 10.7295 74.8238 9.99002V1.41014L79.4703 12.0189H79.7323H79.7329ZM93.8292 12.1562C95.0695 12.1562 96.0128 12.1045 96.6419 12.1045H100.52C101.079 12.1045 101.795 12.1218 102.65 12.139C103.506 12.1562 104.083 12.1562 104.415 12.1562L104.677 8.75176L104.397 8.71728C103.978 10.6261 102.93 11.8293 100.537 11.8293C99.3495 11.8293 98.5636 11.6741 98.1614 11.365C97.7598 11.0725 97.5502 10.4371 97.5502 9.49067V6.01723C97.742 5.99999 97.9695 5.98275 98.2487 5.98275H98.8778C100.066 5.98275 100.852 7.06586 100.974 8.57877L101.253 8.56153C101.218 7.80478 101.201 6.9107 101.201 5.89655C101.201 5.19152 101.218 4.34619 101.253 3.39505L100.974 3.37781C100.886 4.96562 100.013 5.70751 98.8778 5.70751H98.2315C97.9345 5.70751 97.7076 5.69027 97.5502 5.67303V0.910197C97.5502 0.412037 97.6024 0.32584 97.9517 0.32584H99.7861C100.764 0.32584 101.55 0.49764 102.127 0.824C102.703 1.17117 103.175 1.86134 103.577 2.8957L103.804 2.86122L103.35 -0.00170898C102.983 -0.00170898 102.371 -0.00170898 101.498 0.0155304C100.624 0.0327699 100.048 0.0500093 99.7861 0.0500093H96.6241C96.3098 0.0500093 95.8554 0.0327699 95.2441 0.0155304C94.6329 -0.00170898 94.1618 -0.00170898 93.8292 -0.00170898L93.8119 0.221809C94.5984 0.307412 95.0873 0.462566 95.2964 0.686085C95.4883 0.909603 95.5934 1.44284 95.5934 2.25071V10.1428C95.5934 10.7099 95.4883 11.1058 95.2792 11.3466C95.0523 11.604 94.5628 11.7764 93.8119 11.8965L93.8292 12.1545V12.1562ZM121.533 2.85409C121.533 1.78822 121.62 1.11766 121.795 0.842428C121.952 0.584431 122.441 0.378153 123.245 0.223592L123.227 0.0173138C122.808 0.0173138 121.743 0.0690321 121.393 0.0690321C121.184 0.0690321 120.851 0.0517927 120.415 0.0345532C119.961 0.0173138 119.559 0.0173138 119.227 0.0173138L119.21 0.223592C120.24 0.378153 120.519 0.412632 120.887 0.79071C121.236 1.16879 121.253 1.68478 121.253 2.85409V9.07812L113.446 0.0511982C113.079 0.0684376 112.607 0.0684376 112.031 0.0684376C111.891 0.0684376 111.629 0.0511982 111.227 0.0339588C110.825 0.0167194 110.511 0.0167194 110.284 0.0167194L110.266 0.222998C111.174 0.377558 111.681 0.876313 112.239 1.78762V10.0067C112.239 10.6945 112.117 11.1415 111.873 11.365C111.628 11.5885 111.052 11.7776 110.144 11.95L110.161 12.1562C110.388 12.1562 110.772 12.1562 111.314 12.139C111.856 12.1218 112.188 12.1045 112.344 12.1045C112.624 12.1045 112.956 12.1218 113.358 12.139C113.759 12.1562 114.021 12.1562 114.179 12.1562L114.196 11.95C113.462 11.8299 113.009 11.6408 112.817 11.4167C112.624 11.1932 112.52 10.7289 112.52 10.0073V2.01233L121.323 12.1907H121.533V2.85468V2.85409Z" fill="white"/>
<path d="M25.8321 40.0311C25.1388 41.9227 24.0108 43.369 22.5025 44.3689C20.7519 45.5697 18.8303 46.1696 16.7815 46.1696C13.7501 46.1696 11.0598 44.8088 8.71159 42.1278C6.32062 39.4468 5.12544 35.965 5.12544 31.7235C5.12544 27.5617 6.44893 24.1203 8.37061 22.1592C10.2489 20.2385 12.5977 19.1982 14.9459 19.1982C17.7212 19.1982 20.4116 20.679 22.0338 22.5997C23.3859 24.2333 24.3226 25.9228 24.7949 27.3899L25.6206 27.265V18.9176H24.9375C24.5531 19.6779 23.7844 20.078 22.717 20.078C22.0766 20.078 19.6001 18.5574 14.9459 18.5574C10.7194 18.5574 7.17543 19.8777 4.31459 22.5189C1.45376 25.1601 0.00195312 28.6817 0.00195312 33.1235C0.00195312 37.5653 1.83809 41.487 4.61339 43.888C7.38869 46.3289 11.0604 47.7699 14.9459 47.7699C17.7212 47.7699 20.2405 47.0494 22.4609 45.6488C24.211 44.5449 25.5101 43.0183 26.3578 41.0495C26.1689 40.7171 25.9942 40.3777 25.8326 40.0305L25.8321 40.0311ZM192.455 18.558C190.107 18.558 188.014 19.2386 186.264 20.5589C184.471 21.9196 183.574 23.7999 183.574 26.2414C183.574 36.1255 198.433 33.2043 198.433 41.248C198.433 46.1702 194.637 47.0315 192.162 47.0315C189.776 47.0315 188.221 45.9603 186.303 44.8623C189.199 49.1133 196.334 48.6681 200.013 45.7695C202.161 44.0765 203.001 42.488 203.001 39.8867C203.001 29.4021 187.118 31.563 187.118 24.3605C187.118 20.679 189.638 19.1982 192.669 19.1982C194.761 19.1982 196.597 20.0786 197.622 21.1189C198.092 21.6391 198.561 22.3197 198.988 23.1597C199.8 24.8004 200.013 25.6808 200.354 27.2413L201.08 27.161L200.653 19.3581H200.226C200.183 19.7986 199.628 20.3187 198.988 20.3187C198.689 20.3187 197.878 20.0388 196.511 19.4384C195.145 18.8379 193.779 18.558 192.455 18.558ZM175.445 18.558C173.097 18.558 171.004 19.2386 169.254 20.5589C167.461 21.9196 166.564 23.7999 166.564 26.2414C166.564 36.1255 181.423 33.2043 181.423 41.248C181.423 46.1702 177.58 47.0904 175.104 47.0904C172.542 47.0904 170.408 45.8099 169.084 43.8089C168.11 42.3371 167.46 40.8646 166.997 39.297L166.042 39.4396L166.48 47.1706H167.203C167.588 46.4103 168.017 45.8503 168.7 45.8503C169.212 45.8503 171.177 47.771 175.361 47.771C178.478 47.771 180.997 47.091 183.003 45.7701C185.01 44.4492 185.993 42.4886 185.993 39.8873C185.993 29.4027 170.109 31.5636 170.109 24.3611C170.109 20.7343 172.554 19.2434 175.525 19.2H175.526H175.526C175.572 19.1958 176.861 19.0894 178.002 19.5721L178.004 19.5727C178.721 19.8069 179.363 20.1351 179.893 20.5119L179.894 20.5131C179.115 19.4598 177.709 18.5591 175.447 18.5591L175.445 18.558ZM124.436 33.1639C125.759 33.1639 126.827 33.4843 127.638 34.1644C128.407 34.845 129.346 36.1653 130.499 38.2061L132.677 42.0481C133.958 44.2489 134.855 45.6892 135.409 46.3301C135.741 46.7438 136.125 47.0238 136.575 47.1706H164.224L163.989 43.1307C162.493 45.263 160.054 46.4888 156.156 46.4888C153.253 46.4888 151.341 46.1571 150.35 45.4497C149.379 44.7571 148.855 43.2888 148.855 41.0881V33.0046C149.325 32.9648 149.88 32.9243 150.563 32.9243H152.1C155.003 32.9243 156.925 35.4454 157.224 38.967L157.907 38.9272C157.821 37.1664 157.779 35.0852 157.779 32.7246C157.779 31.0839 157.821 29.1162 157.907 26.9024L157.224 26.8626C157.011 30.5572 154.874 32.2847 152.1 32.2847H150.52C149.796 32.2847 149.24 32.2449 148.855 32.2044V21.1201C148.855 19.9597 148.983 19.7594 149.837 19.7594H154.32C156.711 19.7594 158.644 20.1428 160.041 20.9198C161.46 21.7092 162.603 23.3339 163.585 25.742L164.141 25.6618L163.03 18.999C162.133 18.999 160.639 18.9996 158.505 19.0389C156.37 19.0781 154.96 19.1191 154.32 19.1191H146.592C145.824 19.1191 144.713 19.0787 143.219 19.0389C141.724 18.999 140.571 18.999 139.761 18.999L139.718 19.5192C141.64 19.7195 142.847 20.0697 143.347 20.5993C143.828 21.1088 144.073 22.3613 144.073 24.241V42.6087C144.073 43.0249 144.094 44.4248 143.971 45.2868C143.809 46.4228 142.888 46.7914 141.656 46.531C140.986 46.3889 140.391 45.4693 139.999 44.9485C139.388 44.1365 138.885 43.2805 138.568 42.7288L135.623 37.6069C134.128 35.046 133.189 34.0057 130.968 33.1651C135.879 32.5647 138.44 29.6768 138.44 26.3424C138.44 24.3748 137.544 22.6479 135.792 21.1605C134.042 19.7201 131.609 18.9996 128.534 18.9996C127.808 18.9996 126.655 18.9996 124.99 19.0395C123.324 19.0793 121.916 19.1197 120.849 19.1197C120.312 19.1197 119.565 19.0948 118.628 19.065V24.7624V41.3294V47.2354C119.754 47.2015 120.594 47.1718 121.147 47.1718C122.044 47.1718 123.24 47.2117 124.733 47.2521C126.228 47.2919 127.252 47.2919 127.765 47.2919L127.808 46.8116C125.588 46.4115 124.563 46.0114 123.965 45.2909C123.795 45.131 123.667 44.8106 123.581 44.3309C123.411 43.3702 123.411 42.9702 123.411 41.3294V33.2459C123.624 33.2061 123.965 33.1657 124.435 33.1657L124.436 33.1639ZM123.411 21.1189C123.411 20.4787 123.539 20.0786 123.838 19.9187C124.137 19.7582 124.906 19.6785 126.186 19.6785C128.62 19.6785 130.413 20.3187 131.652 21.6064C132.847 22.9267 133.445 24.4943 133.445 26.3418C133.445 30.5566 130.841 32.6443 125.589 32.6443C124.692 32.6443 123.967 32.6045 123.411 32.5243V21.1195V21.1189ZM114.836 35.6077C114.055 35.6291 113.396 35.6446 112.836 35.6446C111.811 35.6446 110.572 35.6048 109.121 35.5643C107.627 35.5245 106.602 35.5245 106.004 35.5245L105.962 36.1647C107.542 36.3247 108.139 36.4049 109.164 36.9251C110.146 37.4452 110.53 38.526 110.53 40.2862C110.53 42.3668 109.847 44.0075 108.524 45.2481C107.2 46.4888 105.577 47.129 103.742 47.129C100.881 47.129 98.3616 45.8087 96.2273 43.2074C94.0924 40.606 93.0249 37.1646 93.0249 32.8827C93.0249 28.2007 94.3912 24.3991 96.4406 22.3185C98.4472 20.2373 100.71 19.197 103.059 19.197C106.261 19.197 108.994 20.4775 110.701 22.3982C112.409 24.3189 113.391 26.2794 113.904 28.2406L114.501 28.2007V18.917H113.818C113.69 19.6773 112.921 20.0774 111.598 20.0774C111.213 20.0774 108.182 18.5568 103.571 18.5568C99.1303 18.5568 95.4158 19.8771 92.3845 22.5183C89.3532 25.1595 87.8586 28.6811 87.8586 33.1229C87.8586 37.645 89.3104 41.2064 92.2562 43.8072C95.2026 46.4484 99.0026 47.7687 103.7 47.7687C106.304 47.7687 108.653 46.8883 110.019 45.968C111.299 45.1055 113.104 44.1026 114.837 43.7489V35.6065L114.836 35.6077ZM84.402 25.6404C84.402 23.1591 84.6152 21.5986 85.0424 20.9584C85.4267 20.358 86.6219 19.8777 88.5863 19.518L88.5435 19.0377C87.5189 19.0377 84.9146 19.1578 84.0604 19.1578C83.5478 19.1578 82.7369 19.1179 81.6695 19.0775C80.5592 19.0377 79.5773 19.0377 78.7659 19.0377L78.7231 19.518C81.2424 19.8783 81.9255 19.9585 82.8219 20.8383C83.6755 21.7187 83.7189 22.9195 83.7189 25.6404V40.1263L64.6333 19.1179C63.7364 19.1578 62.5834 19.1578 61.1749 19.1578C60.8333 19.1578 60.193 19.1179 59.2111 19.0775C58.2291 19.0377 57.4605 19.0377 56.9056 19.0377L56.8629 19.518C59.0827 19.8783 60.3213 21.0386 61.6876 23.1597V42.2877C61.6876 43.8886 61.3882 44.9289 60.7912 45.4491C60.193 45.9692 58.7845 46.4091 56.5641 46.8098L56.6068 47.2901C57.1623 47.2901 58.1014 47.2901 59.4249 47.2503C60.7484 47.2105 61.5598 47.17 61.9442 47.17C62.6273 47.17 63.4388 47.2099 64.4207 47.2503C65.4026 47.2901 66.043 47.2901 66.4273 47.2901L66.4701 46.8098C64.6767 46.5298 63.5671 46.0893 63.0972 45.5692C62.6273 45.049 62.3713 43.9683 62.3713 42.2877V23.6798L83.8905 47.3698H84.4032V25.6404H84.402ZM32.0592 32.0029C32.0592 28.4819 33.0839 25.4805 35.1333 22.9594C37.14 20.4382 39.446 19.1976 42.008 19.1976C44.7833 19.1976 47.3881 20.3182 49.5225 22.5189C51.6574 24.76 52.9809 28.7215 52.9809 33.6835C52.9809 37.4851 52.1273 40.6464 50.3761 43.2472C48.6255 45.8485 46.2773 47.129 43.3315 47.129C39.8731 47.129 37.0978 45.7689 35.0912 43.0076C33.0845 40.2463 32.0598 36.6052 32.0598 32.0029H32.0592ZM26.893 33.1633C26.893 37.6051 28.9424 41.5268 31.9315 43.9278C34.9201 46.3289 38.7201 47.7693 42.5201 47.7693C46.8749 47.7693 50.5472 46.449 53.5785 43.7673C56.6098 41.1261 58.1044 37.6045 58.1044 33.1627C58.1044 28.8011 56.567 25.2397 53.4502 22.5581C50.3333 19.8771 46.6616 18.5568 42.5201 18.5568C38.2074 18.5568 34.5357 19.8771 31.5044 22.5183C28.4303 25.1993 26.893 28.7209 26.893 33.1627V33.1633Z" fill="#C49D49"/>
</g>
<defs>
<clipPath id="clip0_77_383">
<rect width="203" height="48" fill="white"/>
</clipPath>
</defs>
</svg>
