<svg width="203" height="48" viewBox="0 0 203 48" fill="none" xmlns="http://www.w3.org/2000/svg">
<g clip-path="url(#clip0_59_326)">
<path d="M6.68341 0.327029C7.43486 0.327029 7.46931 0.344268 7.46931 0.911386V10.0043C7.46931 10.6778 7.36476 11.1249 7.13725 11.3656C6.90974 11.6236 6.40362 11.8126 5.58268 11.9506L5.6005 12.1568C6.50877 12.1568 7.76632 12.1051 8.51777 12.1051C9.02447 12.1051 9.54841 12.1224 10.1246 12.1396C10.6836 12.1568 11.103 12.1568 11.3649 12.1568L11.3828 11.9506C10.3872 11.8471 9.93274 11.6064 9.67078 11.2972C9.60068 11.2283 9.54841 11.0737 9.51336 10.833C9.46108 10.5922 9.44326 10.3836 9.44326 10.1939C9.42604 10.0221 9.42604 9.71241 9.42604 9.28261V0.91198C9.42604 0.413821 9.51336 0.327623 9.79255 0.327623H10.9277C12.657 0.327623 13.6525 1.25558 13.9151 3.09841L14.1943 3.08118L13.9323 0.000668867C13.5308 0.000668867 12.8494 0.000668868 11.9233 0.0179083C10.9978 0.0351477 10.1591 0.0523871 9.42604 0.0523871H7.46931C7.04993 0.0523871 6.29907 0.0351477 5.19894 0.0179083C4.0982 0.000668868 3.34735 0.000668867 2.96302 0.000668867L2.70105 3.08118L2.98024 3.09841C3.10321 2.28995 3.45249 1.63366 4.01088 1.10102C4.55263 0.585026 5.16389 0.327623 5.8096 0.327623H6.68282L6.68341 0.327029ZM31.016 2.20137C31.016 1.37626 31.0861 0.860262 31.2435 0.653983C31.3831 0.464944 31.8197 0.30979 32.5533 0.224187L32.5355 0.0179083C32.0638 0.0179083 31.2601 0.0696265 30.8936 0.0696265C30.5615 0.0696265 29.8107 0.0179083 29.3212 0.0179083L29.3034 0.224187C29.9152 0.275905 30.3168 0.430465 30.4914 0.671223C30.6489 0.91198 30.7362 1.42797 30.7362 2.20137V7.60028C30.7362 10.3342 29.339 11.8816 27.1904 11.8816C24.4656 11.8816 23.2954 10.6433 23.2954 7.34228V2.20137C23.2954 1.37626 23.3132 1.16938 23.5401 0.808544C23.767 0.447705 24.2393 0.344268 25.1648 0.224187L25.1476 0.0179083C24.8678 0.0179083 24.4139 0.0179083 23.8027 0.0351477C23.1908 0.0523871 22.7198 0.0696265 22.4228 0.0696265C22.143 0.0523871 21.7414 0.0351477 21.2003 0.0179083C20.6585 0.0179083 20.2219 0.0179083 19.8548 0.0179083L19.8376 0.224187C20.5361 0.30979 20.9555 0.464944 21.1129 0.688462C21.2698 0.91198 21.3399 1.42797 21.3399 2.20137V7.60028C21.3399 10.7807 22.9467 12.3631 26.1782 12.3631C29.4097 12.3631 31.0166 10.7813 31.0166 7.60028V2.20137H31.016ZM42.2651 6.08678C42.8068 6.08678 43.2434 6.2241 43.5749 6.51658C43.8897 6.80905 44.2741 7.37617 44.7451 8.253L45.6362 9.90383C46.1601 10.8496 46.5272 11.4685 46.7541 11.7437C46.9638 12.0189 47.2258 12.1562 47.5579 12.1562C47.9594 12.1562 48.658 12.1045 48.7976 12.1045H50.5969V11.8982H50.4573C49.6714 11.8982 48.6586 11.2967 48.0467 10.1963L46.8415 7.9956C46.2302 6.89525 45.8459 6.44821 44.9376 6.08737C46.946 5.82938 47.9945 4.58873 47.9945 3.15608C47.9945 2.31075 47.6274 1.56827 46.9116 0.92922C46.1952 0.310384 45.1996 0.000668867 43.9414 0.000668867C43.645 0.000668867 43.1727 0.000668868 42.492 0.0179083C41.8106 0.0351477 41.2344 0.0523871 40.7978 0.0523871C40.518 0.0523871 40.0986 0.0351477 39.5575 0.0179083C38.9985 0.000668868 38.5269 0.000668867 38.1603 0.000668867L38.1425 0.224187C38.9284 0.30979 39.4179 0.464944 39.6098 0.705702C39.8016 0.963699 39.889 1.54806 39.889 2.47661V9.5947C39.889 10.4543 39.8016 11.022 39.6098 11.2972C39.4173 11.5725 38.9284 11.7954 38.1075 11.9506L38.1247 12.1568C38.5613 12.1568 39.0858 12.1568 39.662 12.1396C40.2382 12.1224 40.6576 12.1051 40.9196 12.1051C41.2867 12.1051 41.7756 12.1224 42.3868 12.1396C42.9981 12.1568 43.4175 12.1568 43.6272 12.1568L43.645 11.9506C42.7361 11.7788 42.3173 11.6064 42.0726 11.2972C42.0025 11.2283 41.9502 11.091 41.9158 10.8847C41.8457 10.4721 41.8457 10.3003 41.8457 9.5953V6.12185C41.933 6.10461 42.0726 6.08737 42.2651 6.08737V6.08678ZM41.8457 0.911386C41.8457 0.63615 41.898 0.46435 42.0203 0.395392C42.1427 0.327029 42.4569 0.291956 42.9809 0.291956C43.9765 0.291956 44.7101 0.567192 45.2162 1.12064C45.7057 1.68775 45.9498 2.36128 45.9498 3.15548C45.9498 4.96681 44.8841 5.86326 42.7355 5.86326C42.369 5.86326 42.072 5.84602 41.8445 5.81154V0.910791L41.8457 0.911386ZM59.6974 6.05289L62.702 10.0417C63.0341 10.506 63.1909 10.8669 63.1909 11.1249C63.1909 11.5891 62.8939 11.8644 62.2826 11.95L62.2998 12.1562C62.7192 12.1562 63.1909 12.1562 63.6976 12.139C64.2037 12.1218 64.5708 12.1045 64.8155 12.1045C65.0425 12.1045 65.4791 12.1218 66.1432 12.139C66.8067 12.1562 67.2962 12.1562 67.5932 12.1562L67.611 11.95C66.5626 11.7437 65.9864 11.365 65.2183 10.3336L60.9383 4.67671L63.4012 1.96002C63.9601 1.34059 64.4318 0.910791 64.8161 0.670628C65.1827 0.429871 65.7422 0.275311 66.4931 0.223592L66.4753 0.0173138C66.2656 0.0173138 65.9163 0.0173138 65.4274 0.0345532C64.9207 0.0517927 64.5714 0.0690321 64.3445 0.0690321C64.0302 0.0517927 62.9818 7.44041e-05 62.737 7.44041e-05L62.7198 0.223592C63.3138 0.309195 63.6109 0.532713 63.6109 0.876907C63.6109 1.16938 63.3311 1.61642 62.7893 2.21802L59.0689 6.3103V1.73709C59.0689 0.722347 59.3659 0.344268 60.3966 0.224187L60.3793 0.0179083C60.1518 0.0179083 59.7681 0.0179083 59.2614 0.0351477C58.7547 0.0523871 58.3531 0.0696265 58.0561 0.0696265C57.7763 0.0523871 57.3748 0.0351477 56.868 0.0179083C56.3441 0.0179083 55.9247 0.0179083 55.6283 0.0179083L55.6111 0.224187C56.7813 0.344268 57.1128 0.705702 57.1128 1.82329V9.83546C57.1128 10.6267 56.9904 11.1421 56.7635 11.4001C56.5366 11.6581 56.0477 11.8471 55.3313 11.95L55.3485 12.1562C55.6806 12.1562 56.1701 12.1562 56.8158 12.139C57.4621 12.1218 57.8815 12.1045 58.1084 12.1045C58.6151 12.1045 59.8548 12.1562 60.3265 12.1562L60.3437 11.95C59.2958 11.692 59.0683 11.2622 59.0683 10.1446V6.74009L59.6974 6.0523V6.05289ZM79.7328 12.0189L84.6062 0.774065V9.52575C84.6062 10.6261 84.6062 11.0559 84.2569 11.4001C84.0822 11.5719 83.9076 11.6753 83.7151 11.7264C83.5233 11.7782 83.1561 11.8299 82.6494 11.8982L82.6673 12.1562C83.1561 12.1562 83.7151 12.1562 84.3436 12.139C84.9555 12.1218 85.4093 12.1045 85.6713 12.1045C85.8631 12.1045 86.2475 12.1218 86.8243 12.139C87.3832 12.1562 87.8026 12.1562 88.0818 12.1562L88.0996 11.8982C87.331 11.8126 86.8771 11.6575 86.7197 11.434C86.5629 11.2277 86.4756 10.6427 86.4756 9.66307V1.59918C86.4756 0.687868 86.8249 0.412632 88.1697 0.223592L88.1519 0.0173138C87.663 0.0173138 86.9122 0.0690321 86.4227 0.0690321H84.6062L80.4836 9.59411L76.4834 0.0690321H74.8938C74.4222 0.0690321 73.3392 0.0173138 72.5706 0.0173138L72.5527 0.223592C73.758 0.275311 74.5439 0.670628 74.5439 1.16938V9.99002C74.5439 10.7295 74.4566 11.211 74.2642 11.4173C74.0723 11.6408 73.5656 11.8126 72.7797 11.9506L72.7969 12.1568C73.1985 12.1568 74.1245 12.1051 74.6835 12.1051C75.0851 12.1051 75.9411 12.1568 76.5001 12.1568L76.5179 11.9506C75.8015 11.8305 75.3304 11.6581 75.138 11.4346C74.9283 11.211 74.8237 10.7295 74.8237 9.99002V1.41014L79.4702 12.0189H79.7322H79.7328ZM93.829 12.1562C95.0694 12.1562 96.0127 12.1045 96.6418 12.1045H100.52C101.079 12.1045 101.795 12.1218 102.65 12.139C103.506 12.1562 104.083 12.1562 104.415 12.1562L104.677 8.75176L104.397 8.71728C103.978 10.6261 102.93 11.8293 100.537 11.8293C99.3493 11.8293 98.5634 11.6741 98.1613 11.365C97.7597 11.0725 97.55 10.4371 97.55 9.49067V6.01723C97.7419 5.99999 97.9694 5.98275 98.2486 5.98275H98.8777C100.066 5.98275 100.852 7.06586 100.973 8.57877L101.253 8.56153C101.218 7.80478 101.201 6.9107 101.201 5.89655C101.201 5.19152 101.218 4.34619 101.253 3.39505L100.973 3.37781C100.886 4.96562 100.013 5.70751 98.8777 5.70751H98.2314C97.9344 5.70751 97.7075 5.69027 97.55 5.67303V0.910197C97.55 0.412037 97.6023 0.32584 97.9516 0.32584H99.7859C100.764 0.32584 101.55 0.49764 102.127 0.824C102.703 1.17117 103.175 1.86134 103.576 2.8957L103.804 2.86122L103.35 -0.00170898C102.982 -0.00170898 102.371 -0.00170898 101.498 0.0155304C100.624 0.0327699 100.048 0.0500093 99.7859 0.0500093H96.6239C96.3097 0.0500093 95.8553 0.0327699 95.244 0.0155304C94.6328 -0.00170898 94.1617 -0.00170898 93.829 -0.00170898L93.8118 0.221809C94.5983 0.307412 95.0872 0.462566 95.2963 0.686085C95.4882 0.909603 95.5933 1.44284 95.5933 2.25071V10.1428C95.5933 10.7099 95.4882 11.1058 95.2791 11.3466C95.0521 11.604 94.5627 11.7764 93.8118 11.8965L93.829 12.1545V12.1562ZM121.533 2.85409C121.533 1.78822 121.62 1.11766 121.795 0.842428C121.952 0.584431 122.441 0.378153 123.245 0.223592L123.227 0.0173138C122.807 0.0173138 121.742 0.0690321 121.393 0.0690321C121.183 0.0690321 120.851 0.0517927 120.415 0.0345532C119.961 0.0173138 119.559 0.0173138 119.227 0.0173138L119.209 0.223592C120.24 0.378153 120.519 0.412632 120.886 0.79071C121.236 1.16879 121.253 1.68478 121.253 2.85409V9.07812L113.446 0.0511982C113.078 0.0684376 112.607 0.0684376 112.031 0.0684376C111.891 0.0684376 111.628 0.0511982 111.227 0.0339588C110.825 0.0167194 110.511 0.0167194 110.284 0.0167194L110.266 0.222998C111.174 0.377558 111.681 0.876313 112.239 1.78762V10.0067C112.239 10.6945 112.117 11.1415 111.873 11.365C111.628 11.5885 111.052 11.7776 110.143 11.95L110.161 12.1562C110.388 12.1562 110.772 12.1562 111.314 12.139C111.855 12.1218 112.187 12.1045 112.344 12.1045C112.624 12.1045 112.956 12.1218 113.358 12.139C113.759 12.1562 114.021 12.1562 114.179 12.1562L114.196 11.95C113.462 11.8299 113.008 11.6408 112.817 11.4167C112.624 11.1932 112.52 10.7289 112.52 10.0073V2.01233L121.323 12.1907H121.533V2.85468V2.85409Z" fill="#1A1F21"/>
<path d="M25.8313 40.0311C25.1381 41.9227 24.01 43.369 22.5018 44.3689C20.7512 45.5697 18.8295 46.1696 16.7807 46.1696C13.7494 46.1696 11.059 44.8088 8.71085 42.1278C6.31989 39.4468 5.12471 35.965 5.12471 31.7235C5.12471 27.5617 6.4482 24.1203 8.36988 22.1592C10.2482 20.2385 12.597 19.1982 14.9452 19.1982C17.7205 19.1982 20.4108 20.679 22.0331 22.5997C23.3851 24.2333 24.3219 25.9228 24.7942 27.3899L25.6199 27.265V18.9176H24.9367C24.5524 19.6779 23.7837 20.078 22.7162 20.078C22.0759 20.078 19.5994 18.5574 14.9452 18.5574C10.7187 18.5574 7.1747 19.8777 4.31386 22.5189C1.45302 25.1601 0.0012207 28.6817 0.0012207 33.1235C0.0012207 37.5653 1.83736 41.487 4.61266 43.888C7.38795 46.3289 11.0596 47.7699 14.9452 47.7699C17.7205 47.7699 20.2397 47.0494 22.4602 45.6488C24.2102 44.5449 25.5094 43.0183 26.357 41.0495C26.1681 40.7171 25.9935 40.3777 25.8319 40.0305L25.8313 40.0311ZM192.454 18.558C190.106 18.558 188.013 19.2386 186.263 20.5589C184.47 21.9196 183.574 23.7999 183.574 26.2414C183.574 36.1255 198.432 33.2043 198.432 41.248C198.432 46.1702 194.637 47.0315 192.161 47.0315C189.775 47.0315 188.221 45.9603 186.303 44.8623C189.198 49.1133 196.333 48.6681 200.012 45.7695C202.161 44.0765 203.001 42.488 203.001 39.8867C203.001 29.4021 187.118 31.563 187.118 24.3605C187.118 20.679 189.637 19.1982 192.668 19.1982C194.76 19.1982 196.596 20.0786 197.621 21.1189C198.091 21.6391 198.56 22.3197 198.987 23.1597C199.799 24.8004 200.012 25.6808 200.354 27.2413L201.08 27.161L200.652 19.3581H200.225C200.183 19.7986 199.628 20.3187 198.987 20.3187C198.688 20.3187 197.877 20.0388 196.51 19.4384C195.144 18.8379 193.778 18.558 192.454 18.558ZM175.444 18.558C173.096 18.558 171.003 19.2386 169.253 20.5589C167.46 21.9196 166.564 23.7999 166.564 26.2414C166.564 36.1255 181.422 33.2043 181.422 41.248C181.422 46.1702 177.579 47.0904 175.103 47.0904C172.541 47.0904 170.407 45.8099 169.083 43.8089C168.109 42.3371 167.459 40.8646 166.996 39.297L166.041 39.4396L166.479 47.1706H167.203C167.587 46.4103 168.016 45.8503 168.699 45.8503C169.212 45.8503 171.176 47.771 175.36 47.771C178.477 47.771 180.996 47.091 183.003 45.7701C185.009 44.4492 185.992 42.4886 185.992 39.8873C185.992 29.4027 170.109 31.5636 170.109 24.3611C170.109 20.7343 172.553 19.2434 175.524 19.2H175.525H175.526C175.571 19.1958 176.86 19.0894 178.002 19.5721L178.003 19.5727C178.72 19.8069 179.362 20.1351 179.892 20.5119L179.894 20.5131C179.114 19.4598 177.708 18.5591 175.446 18.5591L175.444 18.558ZM124.435 33.1639C125.759 33.1639 126.826 33.4843 127.638 34.1644C128.406 34.845 129.345 36.1653 130.498 38.2061L132.676 42.0481C133.957 44.2489 134.854 45.6892 135.409 46.3301C135.74 46.7438 136.124 47.0238 136.574 47.1706H164.224L163.988 43.1307C162.492 45.263 160.054 46.4888 156.156 46.4888C153.252 46.4888 151.34 46.1571 150.349 45.4497C149.378 44.7571 148.854 43.2888 148.854 41.0881V33.0046C149.324 32.9648 149.879 32.9243 150.562 32.9243H152.1C155.003 32.9243 156.924 35.4454 157.223 38.967L157.906 38.9272C157.821 37.1664 157.778 35.0852 157.778 32.7246C157.778 31.0839 157.821 29.1162 157.906 26.9024L157.223 26.8626C157.01 30.5572 154.874 32.2847 152.1 32.2847H150.519C149.795 32.2847 149.239 32.2449 148.854 32.2044V21.1201C148.854 19.9597 148.983 19.7594 149.836 19.7594H154.32C156.71 19.7594 158.643 20.1428 160.041 20.9198C161.46 21.7092 162.603 23.3339 163.585 25.742L164.14 25.6618L163.03 18.999C162.133 18.999 160.638 18.9996 158.504 19.0389C156.369 19.0781 154.959 19.1191 154.32 19.1191H146.591C145.824 19.1191 144.712 19.0787 143.218 19.0389C141.724 18.999 140.571 18.999 139.76 18.999L139.717 19.5192C141.639 19.7195 142.846 20.0697 143.346 20.5993C143.827 21.1088 144.072 22.3613 144.072 24.241V42.6087C144.072 43.0249 144.093 44.4248 143.97 45.2868C143.809 46.4228 142.887 46.7914 141.655 46.531C140.985 46.3889 140.39 45.4693 139.999 44.9485C139.387 44.1365 138.884 43.2805 138.568 42.7288L135.622 37.6069C134.127 35.046 133.188 34.0057 130.968 33.1651C135.878 32.5647 138.439 29.6768 138.439 26.3424C138.439 24.3748 137.543 22.6479 135.792 21.1605C134.041 19.7201 131.608 18.9996 128.533 18.9996C127.807 18.9996 126.654 18.9996 124.989 19.0395C123.324 19.0793 121.915 19.1197 120.848 19.1197C120.311 19.1197 119.564 19.0948 118.627 19.065V24.7624V41.3294V47.2354C119.754 47.2015 120.594 47.1718 121.147 47.1718C122.043 47.1718 123.239 47.2117 124.733 47.2521C126.227 47.2919 127.251 47.2919 127.765 47.2919L127.807 46.8116C125.587 46.4115 124.562 46.0114 123.965 45.2909C123.794 45.131 123.666 44.8106 123.58 44.3309C123.41 43.3702 123.41 42.9702 123.41 41.3294V33.2459C123.623 33.2061 123.965 33.1657 124.435 33.1657L124.435 33.1639ZM123.41 21.1189C123.41 20.4787 123.539 20.0786 123.838 19.9187C124.136 19.7582 124.905 19.6785 126.186 19.6785C128.619 19.6785 130.412 20.3187 131.651 21.6064C132.846 22.9267 133.444 24.4943 133.444 26.3418C133.444 30.5566 130.84 32.6443 125.588 32.6443C124.692 32.6443 123.966 32.6045 123.41 32.5243V21.1195V21.1189ZM114.835 35.6077C114.055 35.6291 113.395 35.6446 112.835 35.6446C111.81 35.6446 110.572 35.6048 109.121 35.5643C107.626 35.5245 106.601 35.5245 106.004 35.5245L105.961 36.1647C107.541 36.3247 108.139 36.4049 109.163 36.9251C110.145 37.4452 110.53 38.526 110.53 40.2862C110.53 42.3668 109.846 44.0075 108.523 45.2481C107.199 46.4888 105.577 47.129 103.741 47.129C100.88 47.129 98.3609 45.8087 96.2266 43.2074C94.0916 40.606 93.0242 37.1646 93.0242 32.8827C93.0242 28.2007 94.3904 24.3991 96.4398 22.3185C98.4464 20.2373 100.71 19.197 103.058 19.197C106.26 19.197 108.993 20.4775 110.701 22.3982C112.408 24.3189 113.39 26.2794 113.903 28.2406L114.501 28.2007V18.917H113.818C113.689 19.6773 112.921 20.0774 111.597 20.0774C111.213 20.0774 108.181 18.5568 103.57 18.5568C99.1296 18.5568 95.4151 19.8771 92.3838 22.5183C89.3525 25.1595 87.8579 28.6811 87.8579 33.1229C87.8579 37.645 89.3097 41.2064 92.2555 43.8072C95.2019 46.4484 99.0019 47.7687 103.699 47.7687C106.303 47.7687 108.652 46.8883 110.018 45.968C111.298 45.1055 113.103 44.1026 114.836 43.7489V35.6065L114.835 35.6077ZM84.4013 25.6404C84.4013 23.1591 84.6145 21.5986 85.0416 20.9584C85.4259 20.358 86.6211 19.8777 88.5856 19.518L88.5428 19.0377C87.5181 19.0377 84.9139 19.1578 84.0597 19.1578C83.547 19.1578 82.7362 19.1179 81.6687 19.0775C80.5585 19.0377 79.5766 19.0377 78.7651 19.0377L78.7224 19.518C81.2416 19.8783 81.9248 19.9585 82.8211 20.8383C83.6748 21.7187 83.7181 22.9195 83.7181 25.6404V40.1263L64.6326 19.1179C63.7356 19.1578 62.5826 19.1578 61.1742 19.1578C60.8326 19.1578 60.1923 19.1179 59.2103 19.0775C58.2284 19.0377 57.4597 19.0377 56.9049 19.0377L56.8621 19.518C59.082 19.8783 60.3206 21.0386 61.6868 23.1597V42.2877C61.6868 43.8886 61.3874 44.9289 60.7904 45.4491C60.1923 45.9692 58.7838 46.4091 56.5633 46.8098L56.6061 47.2901C57.1615 47.2901 58.1007 47.2901 59.4242 47.2503C60.7477 47.2105 61.5591 47.17 61.9434 47.17C62.6266 47.17 63.438 47.2099 64.4199 47.2503C65.4019 47.2901 66.0422 47.2901 66.4266 47.2901L66.4693 46.8098C64.676 46.5298 63.5663 46.0893 63.0965 45.5692C62.6266 45.049 62.3706 43.9683 62.3706 42.2877V23.6798L83.8898 47.3698H84.4024V25.6404H84.4013ZM32.0585 32.0029C32.0585 28.4819 33.0832 25.4805 35.1326 22.9594C37.1392 20.4382 39.4452 19.1976 42.0073 19.1976C44.7826 19.1976 47.3874 20.3182 49.5217 22.5189C51.6567 24.76 52.9802 28.7215 52.9802 33.6835C52.9802 37.4851 52.1265 40.6464 50.3754 43.2472C48.6248 45.8485 46.2766 47.129 43.3308 47.129C39.8724 47.129 37.0971 45.7689 35.0904 43.0076C33.0838 40.2463 32.0591 36.6052 32.0591 32.0029H32.0585ZM26.8923 33.1633C26.8923 37.6051 28.9417 41.5268 31.9308 43.9278C34.9194 46.3289 38.7193 47.7693 42.5193 47.7693C46.8742 47.7693 50.5464 46.449 53.5778 43.7673C56.6091 41.1261 58.1037 37.6045 58.1037 33.1627C58.1037 28.8011 56.5663 25.2397 53.4494 22.5581C50.3326 19.8771 46.6609 18.5568 42.5193 18.5568C38.2067 18.5568 34.535 19.8771 31.5037 22.5183C28.4296 25.1993 26.8923 28.7209 26.8923 33.1627V33.1633Z" fill="#C49D49"/>
</g>
<defs>
<clipPath id="clip0_59_326">
<rect width="203" height="48" fill="white"/>
</clipPath>
</defs>
</svg>
